<svg fill="#1A2A33" height="32" viewBox="0 0 32 32" width="32" xmlns="http://www.w3.org/2000/svg">
  <ellipse cx="16" cy="16.15" rx="14" ry="14.15" fill="#B5F0FF" />
  <circle cx="17.0998" cy="14.2" r="4.8" fill="white" />
  <path
    fillRule="evenodd"
    clipRule="evenodd"
    d="M30 16.1503C30 21.7381 26.798 26.5724 22.1414 28.8807C21.8488 27.6177 21.5518 26.3416 21.2247 25.0786C20.7599 23.3277 21.1042 21.9602 22.4728 20.6492C26.557 16.76 25.6748 11.4204 22.1113 8.33691C20.7599 7.16534 19.0987 6.70804 17.3686 6.49899C14.7218 6.18105 12.1611 6.51641 9.85859 7.95365C9.14848 8.40659 8.50722 9.02069 7.93483 9.66962C7.47003 10.2097 7.59053 10.4928 8.22748 10.8063C8.55887 10.9631 8.69228 11.1548 8.54165 11.5075C8.05533 12.7314 7.92192 14.0467 8.19736 15.3097C8.54165 16.8689 8.33938 18.1319 7.03535 19.1423C6.63511 19.4603 6.72118 19.9829 7.12143 20.3357C7.27636 20.4794 7.45281 20.597 7.64218 20.671C8.0209 20.8452 8.10698 21.0935 7.95635 21.4942C7.92763 21.5725 7.89418 21.6476 7.86192 21.7201C7.72013 22.0387 7.6013 22.3058 8.00799 22.5612C8.10892 22.6314 8.08246 22.6746 8.029 22.7619C7.97304 22.8532 7.88749 22.9929 7.88749 23.2624C7.88749 23.3321 7.97356 23.4366 8.04242 23.4715C8.35659 23.6282 8.35659 23.8547 8.30065 24.1727C8.14571 25.1003 8.76545 25.8189 9.68214 25.8364C10.1642 25.8364 10.642 25.8193 11.124 25.802L11.1368 25.8015C11.9158 25.7667 12.2299 25.906 12.4322 26.6769C12.7077 27.6569 12.9185 28.6542 13.052 29.6516C13.0676 29.7823 13.0833 29.8769 13.0989 29.9716L13.1036 30C6.75991 28.676 2 22.9662 2 16.1503C2 8.33691 8.26191 2 15.9828 2C23.7037 2 30 8.33691 30 16.1503ZM22.5834 14.7113C22.6976 14.7113 22.7936 14.6326 22.7936 14.5168V14.1277C22.7936 14.0119 22.6976 13.9332 22.5834 13.9332L22.3914 13.9517C22.2771 13.9702 22.1812 13.8729 22.1629 13.7571L22.1263 13.5024C22.108 13.3866 22.1857 13.2708 22.3 13.2476L22.492 13.2106C22.6062 13.1921 22.6656 13.0763 22.6473 12.9558L22.5514 12.6455C22.5148 12.5297 22.396 12.4695 22.3 12.5112L22.1263 12.5714C22.0121 12.6085 21.8978 12.5529 21.8567 12.4556L21.7607 12.224C21.7013 12.1268 21.7607 11.9924 21.8567 11.9322L22.0303 11.8535C22.1263 11.7933 22.1629 11.6775 22.108 11.5802L21.9344 11.3069C21.875 11.2097 21.7424 11.1911 21.6464 11.2467L21.4911 11.3625C21.3951 11.4227 21.2625 11.3996 21.2031 11.3254L21.0477 11.1309C20.97 11.0522 20.9883 10.9178 21.066 10.8391L21.1986 10.7048C21.2762 10.626 21.2945 10.4917 21.1986 10.413L20.97 10.1814C20.8923 10.1027 20.7598 10.1212 20.6821 10.1999L20.5678 10.3342C20.4902 10.4315 20.3576 10.4315 20.2799 10.3713L20.088 10.237C20.0857 10.2347 20.0834 10.2335 20.0811 10.2323L20.0789 10.2312C20.0773 10.2303 20.0758 10.2293 20.0743 10.2277C19.9783 10.1675 19.9509 10.0424 20.0103 9.9498V9.94517L20.1062 9.78769C20.1657 9.69042 20.1428 9.57462 20.0468 9.51441L19.7589 9.35693C19.6629 9.29672 19.5304 9.35693 19.4893 9.4542L19.4116 9.63021C19.3521 9.72747 19.2379 9.78769 19.1419 9.746L18.9134 9.64873C18.7991 9.61168 18.7397 9.49125 18.7809 9.37546L18.8403 9.19945C18.8768 9.08365 18.822 8.96786 18.7077 8.9447L18.4015 8.86596C18.2873 8.84743 18.1913 8.92617 18.173 9.02344L18.1364 9.21798C18.1182 9.33377 18.0039 9.41251 17.9079 9.39398L17.6566 9.37546C17.5423 9.37546 17.4646 9.25966 17.4646 9.14387V8.9447C17.4646 8.8289 17.3686 8.73164 17.2544 8.73164H16.9482C16.8339 8.73164 16.7562 8.8289 16.7562 8.9447L16.7745 9.13923C16.7928 9.25503 16.6968 9.3523 16.5825 9.37082L16.3312 9.40788C16.2169 9.42641 16.1026 9.34767 16.0798 9.23187L16.0432 9.03733C16.0249 8.92154 15.9107 8.86133 15.7919 8.87985L15.4856 8.97712C15.3714 9.01418 15.312 9.1346 15.3531 9.23187L15.4125 9.40788C15.4491 9.52367 15.3942 9.63947 15.2983 9.68116L15.0697 9.77842C14.9738 9.83864 14.8412 9.77842 14.7818 9.68116L14.7041 9.50515C14.6447 9.40788 14.5305 9.37083 14.4345 9.42641L14.1648 9.60242C14.0688 9.66263 14.0506 9.79695 14.1054 9.89422L14.2197 10.0517C14.2791 10.149 14.2562 10.2833 14.1831 10.3435L13.9912 10.501C13.9135 10.5797 13.7809 10.5612 13.7032 10.4825L13.5707 10.3481C13.493 10.2694 13.3604 10.2509 13.2828 10.3481L13.0542 10.5797C12.9765 10.6585 12.9948 10.7928 13.0725 10.8715L13.2051 10.9873C13.301 11.0661 13.301 11.2004 13.2416 11.2791L13.1091 11.4737C13.0497 11.5709 12.9171 11.5895 12.8211 11.5339L12.6658 11.4366C12.5698 11.3764 12.4372 11.3996 12.3778 11.5154L12.2224 11.8072C12.163 11.9044 12.2224 12.0387 12.3184 12.0804L12.4921 12.1592C12.5881 12.2194 12.6475 12.3352 12.5881 12.4325L12.4921 12.664C12.4555 12.7798 12.3367 12.84 12.2224 12.7984L12.0488 12.7381C11.9345 12.7011 11.8202 12.7567 11.7974 12.8725L11.7197 13.1828C11.7014 13.2986 11.7791 13.3959 11.8751 13.4144L12.067 13.4514C12.1813 13.47 12.259 13.5858 12.2407 13.7062L12.2224 13.9609C12.2224 14.0767 12.1082 14.1555 11.9939 14.1555H11.7837C11.6786 14.1555 11.5917 14.2435 11.5917 14.35V14.6789C11.5917 14.7947 11.6877 14.8734 11.802 14.8734L11.9939 14.8549C12.1082 14.8549 12.2042 14.9336 12.2224 15.0494L12.259 15.3042C12.2773 15.42 12.1996 15.5358 12.0853 15.5589L11.8934 15.596C11.7791 15.6145 11.7197 15.7303 11.738 15.8507L11.834 16.1611C11.8705 16.2769 11.9894 16.3371 12.0853 16.2954L12.259 16.2352C12.3733 16.1981 12.4875 16.2537 12.5286 16.351L12.6246 16.5826C12.684 16.6798 12.6246 16.8141 12.5286 16.8744L12.355 16.9716C12.259 17.0318 12.2224 17.1476 12.2773 17.2449L12.451 17.5182C12.5104 17.6154 12.6429 17.634 12.7389 17.5784L12.8943 17.4626C12.9903 17.4024 13.1228 17.4255 13.1822 17.4996L13.3376 17.6942C13.4153 17.7915 13.397 17.9072 13.3193 17.986L13.1868 18.1203C13.1091 18.1991 13.0908 18.3334 13.1868 18.4121L13.4153 18.6437C13.493 18.7224 13.6255 18.7039 13.7032 18.6252L13.8175 18.4909C13.8952 18.3936 14.0277 18.3936 14.1054 18.4538L14.2974 18.5881C14.3933 18.6483 14.4116 18.7827 14.3568 18.8799L14.2608 19.0374C14.2014 19.1347 14.2242 19.269 14.3202 19.3292L14.6081 19.4867C14.7041 19.5469 14.8367 19.5052 14.8778 19.3894L14.9555 19.2134C15.0149 19.1161 15.1292 19.0559 15.2251 19.1161L15.4537 19.2134C15.5679 19.2505 15.6273 19.3709 15.5862 19.4867L15.5268 19.6627C15.4902 19.7785 15.5451 19.8943 15.6593 19.9175L15.9655 19.9962C16.0798 20.0147 16.1758 19.936 16.194 19.8387L16.2306 19.6442C16.2489 19.5284 16.3631 19.4496 16.482 19.4682L16.7333 19.4867C16.8476 19.4867 16.9253 19.6025 16.9253 19.7183V19.9128C16.9253 20.0286 17.0213 20.1259 17.1355 20.1259H17.4417C17.556 20.1259 17.6337 20.0286 17.6337 19.9128L17.6154 19.7183C17.6154 19.6025 17.6931 19.5052 17.8074 19.4867L18.0587 19.4496C18.173 19.4311 18.2873 19.5099 18.3101 19.6256L18.3467 19.8202C18.365 19.936 18.4792 19.9962 18.598 19.9777L18.9042 19.8804C19.0185 19.8433 19.0779 19.7229 19.0368 19.6256L18.9774 19.4496C18.9408 19.3338 18.9957 19.218 19.0916 19.1764L19.3201 19.0791C19.4161 19.0189 19.5487 19.0791 19.6081 19.1764L19.6858 19.3524C19.7452 19.4496 19.8594 19.4867 19.9554 19.4311L20.2434 19.2551C20.3393 19.1949 20.3576 19.0606 20.3028 18.9633L20.1885 18.8058C20.1291 18.7085 20.1519 18.5742 20.2479 18.514L20.4399 18.3565C20.5176 18.2778 20.6501 18.2963 20.7278 18.3751L20.8603 18.5094C20.938 18.5881 21.0706 18.6067 21.1483 18.5094L21.3768 18.2778C21.4545 18.1991 21.4362 18.0647 21.3585 17.986L21.226 17.8702C21.1483 17.7915 21.13 17.6571 21.1894 17.5784L21.3448 17.3839C21.3471 17.3815 21.3482 17.3792 21.3494 17.3769L21.3504 17.375C21.351 17.3737 21.3518 17.3724 21.3528 17.3712L21.3539 17.37C21.4134 17.2727 21.5368 17.2449 21.6282 17.3051H21.6327L21.7881 17.4024C21.8841 17.4626 21.9984 17.4394 22.0578 17.3422L22.2132 17.0504C22.2726 16.9531 22.2132 16.8188 22.1172 16.7771L21.9435 16.6983C21.8475 16.6381 21.7881 16.5223 21.8475 16.4251L21.9435 16.1935C21.9801 16.0777 22.0989 16.0175 22.2132 16.0592L22.3868 16.1194C22.5011 16.1564 22.6154 16.1008 22.6382 15.985L22.7159 15.6747C22.7342 15.5589 22.6565 15.4617 22.5605 15.4431L22.3686 15.4061C22.2543 15.3875 22.1766 15.2717 22.1949 15.1745L22.2132 14.9197C22.2132 14.8039 22.3274 14.7252 22.4417 14.7252L22.5834 14.7113ZM17.1675 18.8151C14.7544 18.8151 12.8074 16.8419 12.8074 14.3963C12.8074 11.9507 14.7544 9.97759 17.1675 9.97759C19.5807 9.97759 21.5093 11.9507 21.5093 14.3963C21.5276 16.8373 19.5761 18.8151 17.1675 18.8151ZM19.0255 12.5649C18.9206 12.6194 18.8017 12.6501 18.6757 12.6501C18.2517 12.6501 17.9079 12.3018 17.9079 11.872C17.9079 11.8644 17.908 11.8569 17.9082 11.8494C17.6546 11.7671 17.3842 11.7227 17.1035 11.7227C15.6465 11.7227 14.4654 12.9197 14.4654 14.3963C14.4654 15.8729 15.6465 17.0699 17.1035 17.0699C18.5605 17.0699 19.7416 15.8729 19.7416 14.3963C19.7416 13.6876 19.4696 13.0434 19.0255 12.5649ZM18.1786 11.2789C18.3126 11.1635 18.4861 11.0939 18.6757 11.0939C19.0998 11.0939 19.4436 11.4422 19.4436 11.872C19.4436 11.9414 19.4346 12.0088 19.4177 12.0728C20.0009 12.6694 20.3611 13.4902 20.3611 14.3963C20.3611 16.2197 18.9026 17.6977 17.1035 17.6977C15.3044 17.6977 13.8459 16.2197 13.8459 14.3963C13.8459 12.573 15.3044 11.0949 17.1035 11.0949C17.4803 11.0949 17.842 11.1597 18.1786 11.2789ZM17.1036 15.5358C17.7245 15.5358 18.2279 15.0256 18.2279 14.3963C18.2279 13.767 17.7245 13.2569 17.1036 13.2569C16.4826 13.2569 15.9793 13.767 15.9793 14.3963C15.9793 15.0256 16.4826 15.5358 17.1036 15.5358Z"
    fill="#265ED4"
  />
</svg>